<?xml version="1.0" encoding="UTF-8" standalone="no"?>

<svg width="512" height="326" viewBox="0 0 512 326" version="1.1" id="Logo" xml:space="preserve"
	xmlns="http://www.w3.org/2000/svg" xmlns:svg="http://www.w3.org/2000/svg">

	<g id="layer1">
		<g id="g1" transform="translate(1.4111306,-47.288523)">
			<path class="cloud-in-left"
				d="m 243.38,131.54 c 0.38,14.08 1.21,28.17 0.97,42.24 -0.16,9.21 8.81,17.8 18.14,17.85 4.32,0.02 8.64,0.1 12.96,-0.02 11.75,-0.33 23.02,11.99 20.82,23.6 -1.3,6.85 -5.52,12.05 -11.86,15.56 -7.32,4.05 -15.15,2.58 -22.82,2.73 -9.5,0.19 -18.34,9.61 -16.87,18.98 0.78,4.98 0.73,9.9 0.76,14.86 0.08,15.12 -0.07,30.24 0.14,45.35 0.05,3.79 -1.18,4.8 -4.84,4.75 -13.12,-0.19 -26.25,-0.15 -39.37,-0.01 -5.11,0.05 -10.23,0.48 -15.33,0.94 -3.58,0.33 -4.72,-1.15 -4.44,-4.57 0.84,-10.33 -1.69,-19.96 -7.94,-28.11 -6.45,-8.42 -14.16,-14.79 -25.3,-17.63 -14.92,-3.8 -26.23,1.4 -36.97,10.35 -10.25,8.54 -13.22,19.89 -12.63,32.76 0.38,8.15 0.08,8.16 -8.01,8.16 -10.3,0 -20.62,-0.36 -30.9,0.1 -15.3,0.69 -38.682722,-9.15098 -38.77,-15.19 0.739512,-4.56021 5.619617,-5.33017 10.129791,-5.41979 5.49151,0.29083 9.159435,-5.54835 9.660139,-8.31969 0.109756,-3.58982 1.210314,-8.41993 1.03007,-15.10052 1.12,-10.45 4.09,-20.26 8.49,-29.91 4.38,-9.59 10.63,-17.67 17.75,-24.97 9.23,-9.46 20.76,-15.89 32.81,-21.24 2.42,-1.07 5.01,-1.76 7.66,-2.11 0.44,-0.16 0.89,-0.28 1.34,-0.39 1.13,-0.28 2.23,-0.66 3.35,-0.99 1.17,-0.34 2.4,-0.41 3.58,-0.75 9.93,-1.3 19.9,-0.99 29.82,-0.32 7.82,0.53 10.21,-0.25 14.1,-7.22 6.08,-10.9 12.43,-21.61 21.82,-30.08 14.69,-13.25 31.35,-22.78 51.01,-26.44 3.22,-0.6 6.57,-1.24 9.7,0.59 z"
				id="path1" />
			<path class="cloud-in-right"
				d="m 307.37,238.48 c 8.54,-9.03 11.55,-20.22 9.73,-31.92 -2.09,-13.44 -9.11,-24.32 -21.69,-31.07 -7.9,-4.24 -16.29,-4.98 -24.89,-4.72 -3.79,0.11 -5,-0.88 -5.2,-4.93 -0.58,-11.73 -1.09,-23.46 -0.74,-35.2 0.4,-0.33 0.84,-0.58 1.32,-0.77 2.54,-0.53 5.02,-0.45 7.39,0.71 1.84,1.35 3.96,0.69 5.97,0.77 0.7,0.15 1.35,0.42 2,0.72 21.63,5.51 39.16856,17.55128 53.81,34.04 4.61856,5.20128 8.58996,11.02002 11.35,17.47 1.50332,3.51315 5.33152,9.64329 15.55,8.51 7.05243,-0.78216 12.64387,-0.58154 18.96,-0.81 3.75071,-0.13567 12.17423,0.44122 18.54066,2.25017 7.94673,2.25797 13.2198,3.83898 20.55934,7.81983 6.58046,3.56915 12.78394,7.49614 18.11,12.93 8.01394,8.17614 15.69951,16.32008 21.35,26.59 4.82193,8.76399 8.98325,17.93617 9.59,26.91 0.33171,4.90597 -0.30401,9.6771 0.35,14.44 0.69027,5.02697 5.93103,8.69888 8.0151,10.12951 1.77281,1.21696 11.55563,3.03049 11.5249,7.23049 0.0113,7.86028 -11.87979,11.42035 -20.42,13.26 -7.89021,2.67993 -16.38056,3.17017 -21.33,2.51 -10.13,0.07 -20.28,0.31 -30.4,-0.04 -11.6,-0.4 -19.6,4.36 -24.01,15.09 -1.12,2.73 -0.56,5.47 -0.07,8.27 2.02,11.53 -1.3,22.22 -10.05,26.85 -6.22,3.3 -14.33,4.62 -21.03,0.51 -5.98,-3.67 -10.02,-9.3 -9.45,-17.14 0.28,-3.8 0.05,-7.64 0.04,-11.46 -0.01,-10.4 -10.51,-21.04 -20.85,-21.06 -12.46,-0.02 -24.94,-0.46 -37.37,0.17 -7.77,0.39 -15.54,0.65 -23.31,0.86 -3.22,0.09 -4.34,-0.93 -4.32,-4.24 0.12,-18.11 0.14,-36.21 -0.03,-54.32 -0.03,-3.65 1.35,-4.5 4.67,-4.4 11.81,0.37 22.15,-3.64 31.32,-10.93 2.2,-1.15 3.67,-3.02 5,-5.03 z"
				id="path2" />
			<path class="cloud-out"
				d="m 70.92,219.7 c -10.47,9.76 -17.94,21.49 -23.08,34.95 -0.951705,3.16235 -4.495732,13.1688 -5.6,20.18 -0.46,4.89 -0.189985,14.74124 -0.495096,15.4652 -0.379721,1.89927 -3.644865,6.22508 -8.105198,8.94186 -3.339843,1.75014 -9.189898,5.40334 -12.659741,4.51282 C 15.980977,299.68138 5.86,283.1 5.91,268.81 c 0.03,-9.03 0.45,-17.89 4.77,-25.68 5.92,-10.67 13.79,-19.81 25.76,-24.42 8.67,-3.34 18.4,-12.77 17.89,-24.61 -1.08,-25.08 9.81,-45.2 28.36,-61.08 8.99,-7.69 19.64,-13.01 31.57,-15.7 10.86,-2.45 21.69,-1.02 32.53,-1.41 2.65,0.71 5.29,0.77 7.93,-0.04 7.47,-0.98 13.22,-4.52 16.49,-11.47 5.7,-12.13 12.9,-23.34 23.24,-31.87 9.61,-7.92 20.02,-14.85 32.54,-17.85 4.24,-1.02 8.14,-3.33 12.77,-2.88 1.88,0.18 3.09,0.36 3.13,2.69 0.42,25.69 0.94,51.38 0.49,77.07 -17.8,0.22 -33.07,7.5 -47.51,17.06 -13.05,8.64 -23,20.1 -30.48,33.78 -1.66,3.03 -3.25,6.1 -5.05,9.04 -2.44,4 -7.51,5.72 -12.02,5 -10.5,-1.68 -21.04,-1.35 -31.56,0.06 -4.63662,0.33744 -26.218072,4.90956 -45.84,23.2 z"
				id="path3" />
			<path class="cloud-out"
				d="m 264.59,130.63 c -0.25,-24.55 -0.51,-49.11 -0.75,-73.66 -0.05,-5.29 1.23,-6.72 6.35,-5.48 15.85,3.83 30.58,9.99 42.87,21.2 9.29,8.47 16.84,18.05 22.59,29.32 3.46,6.79 9.62,11.05 17.63,11.81 2.01,0.83 4.02,0.9 6.02,-0.05 9.79,-0.24 19.69,-1.49 29.34,-0.43 10.65,1.16 21.01,4.92 29.71,11.51 12.34,9.35 24.04,19.42 29.97,34.45 3.81,9.66 7.39,19.47 6.91,29.99 -0.53,11.4 4.46,18.6 14.62,23.11 7.17,3.18 14.23,6.55 19.84,12.45 11.89,12.5 17.14,27.47 15.2,44.28 -1.36,11.76 -6.33,22.52 -15.89,30.43 -3.92,-1.94 -7.75115,-4.09721 -11.79,-5.76 -4.85115,-1.99721 -8.27848,-7.32952 -9.18,-10.36 -1.11994,-3.76468 -0.16294,-13.10583 -0.38,-16.9 -0.38716,-6.76736 -9.33663,-24.66803 -11.12,-28.38 -2.08878,-4.34766 -17.89215,-23.36678 -30.32,-31.66 -8.31215,-5.54678 -17.43379,-9.20286 -27.28,-11.18 -12.46447,-2.5029 -31.3183,0.0727 -43.7,-1.55 -6.5132,-0.8536 -8.50664,-6.99184 -11.22,-11.94 -9.13664,-16.66184 -22.41874,-28.95212 -38.73,-38.63 -7.95874,-4.72212 -17.12082,-6.96696 -25.99026,-9.49979 C 274.4765,132.3257 269.12766,131.6547 264.59,130.63 Z"
				id="path4" />
		</g>
	</g>

	<style>
		svg[id="Logo"] {

			--out-color: #50738b;
			--in-color-left: #dbe5eb;
			--in-color-right: #e4f6fd;

			@media (prefers-color-scheme: dark){
				--out-color: #fff;
				--in-color-left: #b8b8ec;
				--in-color-right: #b8b8ec;
			}

			&amp;[data-theme="dark"] {

				--out-color: #fff;
				--in-color-left: #b8b8ec;
				--in-color-right: #b8b8ec;
			}
			&amp;[data-theme="light"] {

				--out-color: #50738b;
				--in-color-left: #dbe5eb;
				--in-color-right: #e4f6fd;
			}

			.cloud-out {
				fill: var(--out-color);
			}

			.cloud-in-left {
				fill: var(--in-color-left);
			}
			.cloud-in-right {
				fill: var(--in-color-right);
			}
		}

	</style>
</svg>