<svg xmlns="http://www.w3.org/2000/svg" xmlns:xlink="http://www.w3.org/1999/xlink" aria-hidden="true"
    style="position: absolute; width: 0; height: 0; overflow: hidden;" version="1.1">
    <defs>
        <symbol id="avaya-logo" viewBox="0 0 111 32">
            <path
                d="M96.994 0l-11.234 23.040h4.53l1.636-3.497h10.259l-1.231-3.046h-7.601l5.204-11.247 8.273 17.79h4.53l-11.232-23.040z" />
            <path
                d="M11.236 0l-11.236 23.040h4.531l1.638-3.497h10.254l-1.228-3.046h-7.599l5.204-11.247 8.271 17.79h4.528l-11.231-23.040z" />
            <path
                d="M53.474 0l-11.234 23.040h4.53l1.636-3.497h10.259l-1.231-3.046h-7.601l5.206-11.247 8.273 17.79h4.528l-11.232-23.040z" />
            <path d="M42.833 0l-8.274 18.127-8.279-18.127h-4.52l11.228 23.040h3.14l11.232-23.040z" />
            <path d="M85.079 0l-8.617 18.647-7.935-18.647h-4.527l10.217 23.265-4.453 8.735h4.332l15.504-32z" />
        </symbol>
    </defs>

    <use xlink:href="#avaya-logo"></use>
</svg>


