<svg width="637" height="231" viewBox="0 0 637 231" fill="none" xmlns="http://www.w3.org/2000/svg">
<path d="M0 21C0 9.40201 9.40202 0 21 0H616C627.598 0 637 9.40202 637 21V210C637 221.598 627.598 231 616 231H21C9.40202 231 0 221.598 0 210V21Z" fill="white"/>
<path d="M72.4899 123.548L63.745 132.23L55 123.548L63.745 114.865L72.4899 123.548ZM93.8237 102.366L108.815 117.346L117.56 108.663L102.569 93.6828L93.8237 85L85.0788 93.6828L69.9913 108.663L78.7363 117.346L93.8237 102.366ZM123.903 114.865L115.158 123.548L123.903 132.23L132.647 123.548L123.903 114.865ZM93.8237 144.634L78.8324 129.75L69.9913 138.432L84.9827 153.317L93.7276 162L102.473 153.317L117.56 138.432L108.815 129.75L93.8237 144.634ZM93.8237 132.23L102.569 123.548L93.8237 114.865L85.0788 123.548L93.8237 132.23ZM186.366 133.089V132.994C186.366 127.364 183.291 124.502 178.39 122.594C181.465 120.876 183.964 118.204 183.964 113.434V113.338C183.964 106.659 178.582 102.366 169.934 102.366H150.137V144.634H170.414C180.024 144.634 186.366 140.818 186.366 133.089ZM174.642 115.056C174.642 118.204 172.048 119.54 167.916 119.54H159.267V110.571H168.492C172.432 110.571 174.642 112.098 174.642 114.96V115.056ZM177.045 131.944C177.045 135.093 174.546 136.524 170.414 136.524H159.267V127.269H170.126C174.931 127.269 177.045 128.986 177.045 131.849V131.944ZM205.971 144.634V102.366H196.649V144.634H205.971ZM256.326 144.634V102.366H247.101V128.414L227.112 102.366H218.463V144.634H227.689V117.823L248.35 144.73H256.326V144.634ZM308.219 144.634L289.96 102.079H281.312L263.053 144.634H272.567L276.507 135.188H294.477L298.417 144.634H308.219ZM291.21 126.983H279.87L285.54 113.243L291.21 126.983ZM352.809 144.634V102.366H343.583V128.414L323.595 102.366H314.946V144.634H324.172V117.823L344.833 144.73H352.809V144.634ZM401.242 137.86L395.284 131.849C391.921 134.902 388.942 136.81 384.137 136.81C376.833 136.81 371.836 130.799 371.836 123.548V123.452C371.836 116.201 377.026 110.285 384.137 110.285C388.365 110.285 391.729 112.098 394.996 115.056L400.954 108.186C397.014 104.274 392.209 101.698 384.137 101.698C371.068 101.698 361.938 111.525 361.938 123.548V123.643C361.938 135.761 371.26 145.398 383.752 145.398C391.921 145.398 396.822 142.535 401.242 137.86ZM441.123 144.634V136.333H418.06V127.46H438.144V119.159H418.06V110.571H440.835V102.27H408.738V144.539H441.123V144.634Z" fill="#F0B90B"/>
<path d="M500.468 116.539C500.468 107.93 494.267 102.391 484.453 102.391H467.837V144.535H475.242V130.989H483.611C492.882 130.989 500.468 126.052 500.468 116.539ZM492.943 116.72C492.943 121.235 489.451 124.306 483.851 124.306H475.242V109.134H483.851C489.39 109.134 492.943 111.723 492.943 116.72Z" fill="#1E2026"/>
<path d="M525.614 102.09H518.75L500.207 144.535H507.793L512.128 134.36H532.056L536.33 144.535H544.157L525.614 102.09ZM529.346 127.798H514.837L522.061 110.94L529.346 127.798Z" fill="#1E2026"/>
<path d="M564.608 127.737L581.345 102.391H572.856L560.936 121.055L549.135 102.391H540.405L557.143 127.918V144.535H564.608V127.737Z" fill="#1E2026"/>
</svg>
