<?xml version="1.0" encoding="UTF-8" standalone="no"?>
<!--Created with Inkscape (http://www.inkscape.org/)-->
<svg width="150" height="250" viewBox="0 0 150 250" version="1.1" id="0c8912db__svg1" xml:space="preserve" xmlns="http://www.w3.org/2000/svg" xmlns:svg="http://www.w3.org/2000/svg">
    <g transform="matrix(0.99514741,0,0,0.99514741,0.0849203,0.00485259)">
        <g transform="matrix(1.3422228,0,0,1.3422228,-524.758,0.18994708)">
            <path d="m 447.769,185.637 c 11.47,0 20.768,-9.395 20.768,-20.985 0,-11.589 -9.298,-20.984 -20.768,-20.984 -11.471,0 -20.769,9.395 -20.769,20.984 0,11.59 9.298,20.985 20.769,20.985 z" fill="currentColor" id="0fc23e58__path11-4"/>
            <path d="m 446.988,129.199 c -0.911,0 -1.751,-0.472 -2.242,-1.247 -0.576,-0.921 -1.307,-2.084 -2.183,-3.466 C 432.011,107.827 404,63.5687 404,44.0504 404,20.0977 423.282,0.603516 447,0.603516 c 23.706,0 43,19.481984 43,43.446884 0,19.5305 -28.023,63.7886 -38.575,80.4486 -0.864,1.369 -1.607,2.532 -2.171,3.44 -0.515,0.788 -1.355,1.26 -2.266,1.26 z" fill="currentColor" id="1288ba89__path12-0"/>
            <path class="mark-circle" d="m 478.5,42.8269 c 0,16.995 -13.87,30.7888 -31,30.7888 -17.13,0 -31,-13.7938 -31,-30.7888 0,-16.995 13.87,-30.7888 31,-30.7888 17.13,0 31,13.7938 31,30.7888 z" fill="#ffffff" stroke="#ffffff" stroke-width="3" id="30f94cd2__path13-8"/>
            <path d="m 451.861,39.0565 c 3.077,0 5.572,-2.4784 5.572,-5.5356 0,-3.0572 -2.495,-5.5355 -5.572,-5.5355 -3.077,0 -5.572,2.4783 -5.572,5.5355 0,3.0572 2.495,5.5356 5.572,5.5356 z" stroke="currentColor" fill="none" stroke-width="2.45423" stroke-miterlimit="10" id="a190f3ce__path14-1"/>
            <path fill-rule="evenodd" clip-rule="evenodd" d="m 461.167,51.0171 c 0,4.3032 -4.165,4.1385 -9.306,4.1385 -5.141,0 -9.306,0.1647 -9.306,-4.1385 0,-4.3033 4.165,-11.4468 9.306,-11.4468 5.141,0 9.306,7.1435 9.306,11.4468 z" stroke="currentColor" fill="none" stroke-width="2.45423" stroke-miterlimit="10" id="85bacbfa__path15-0"/>
            <path fill-rule="evenodd" clip-rule="evenodd" d="m 462.87,54.7529 0.69,3.0511 -2.706,-1.5947 c -0.57,-0.3361 -1.274,-0.3361 -1.837,0 L 456.31,57.804 457,54.7529 c 0.146,-0.6392 -0.073,-1.3048 -0.564,-1.7332 l -2.368,-2.0692 3.138,-0.2834 c 0.656,-0.0659 1.22,-0.4745 1.486,-1.0741 l 1.24,-2.8733 1.247,2.8733 c 0.259,0.5996 0.829,1.0082 1.486,1.0741 l 3.137,0.2834 -2.368,2.0692 c -0.491,0.4284 -0.709,1.094 -0.564,1.7332 z" fill="#c20c0c" stroke="currentColor" stroke-width="0.663306" stroke-miterlimit="10" id="3ec5c4df__path16-5"/>
            <path fill-rule="evenodd" clip-rule="evenodd" d="m 466.592,51.8464 c 0.789,-0.6853 0.365,-1.9835 -0.677,-2.0758 l -3.137,-0.2899 c -0.219,-0.0198 -0.412,-0.1582 -0.498,-0.3559 l -1.247,-2.8798 c -0.411,-0.9556 -1.784,-0.9556 -2.195,0 l -1.247,2.8798 c -0.087,0.1977 -0.279,0.3361 -0.498,0.3559 l -3.137,0.2899 c -1.048,0.0923 -1.466,1.3905 -0.677,2.0758 l 2.368,2.0693 c 0.159,0.1384 0.232,0.3624 0.186,0.5733 l -0.69,3.0578 c -0.232,1.0148 0.876,1.8122 1.778,1.285 l 2.706,-1.6013 c 0.192,-0.1121 0.425,-0.1121 0.61,0 l 2.713,1.6013 c 0.902,0.5272 2.01,-0.2702 1.778,-1.285 l -0.69,-3.0578 c -0.053,-0.2109 0.02,-0.4349 0.186,-0.5733 z m -3.158,1.1731 c -0.49,0.4283 -0.709,1.0939 -0.563,1.7331 l 0.689,3.0512 -2.706,-1.5948 c -0.57,-0.3361 -1.273,-0.3361 -1.837,0 l -2.706,1.5948 0.689,-3.0512 c 0.146,-0.6392 -0.073,-1.3048 -0.563,-1.7331 l -2.368,-2.0693 3.137,-0.2834 c 0.657,-0.0659 1.22,-0.4744 1.486,-1.0741 l 1.24,-2.8732 1.247,2.8732 c 0.259,0.5997 0.829,1.0082 1.486,1.0741 l 3.137,0.2834 z" fill="currentColor" stroke="currentColor" stroke-width="0.663306" stroke-miterlimit="10" id="c51dc9eb__path17-2"/>
            <path fill-rule="evenodd" clip-rule="evenodd" d="m 462.87,54.7529 0.69,3.0511 -2.706,-1.5947 c -0.57,-0.3361 -1.274,-0.3361 -1.837,0 L 456.31,57.804 457,54.7529 c 0.146,-0.6392 -0.073,-1.3048 -0.564,-1.7332 l -2.368,-2.0692 3.138,-0.2834 c 0.656,-0.0659 1.22,-0.4745 1.486,-1.0741 l 1.24,-2.8733 1.247,2.8733 c 0.259,0.5996 0.829,1.0082 1.486,1.0741 l 3.137,0.2834 -2.368,2.0692 c -0.491,0.4284 -0.709,1.094 -0.564,1.7332 z" fill="#ffffff" stroke="currentColor" stroke-width="0.663306" stroke-miterlimit="10" id="f977f4b2__path18-4"/>
            <path d="M 432.969,35.6436 V 47.4915" stroke="currentColor" stroke-width="2.45423" stroke-miterlimit="10" stroke-linecap="round" id="98852a5f__path19-0"/>
            <path d="m 427,41.5605 h 11.94" stroke="currentColor" stroke-width="2.45423" stroke-miterlimit="10" stroke-linecap="round" id="0860e4a9__path20-3"/>
            <path class="mark-number" d="m 447.21,170.523 h 6.768 v 3.629 h -12.859 v -2.096 l 7.466,-9.041 c 0.782,-0.97 1.316,-1.976 1.316,-2.623 0,-1.293 -1.055,-2.203 -2.537,-2.203 -1.694,0 -2.654,1.114 -2.891,2.802 L 441,160.404 c 0.462,-3.448 2.678,-5.807 6.507,-5.807 3.816,0 6.293,2.323 6.293,5.831 0,1.857 -0.877,3.509 -2.098,4.886 z" fill="#ffffff" id="db7c40ea__path21-7"/>
        </g>
    </g>
</svg>
