<?xml version="1.0" encoding="UTF-8" standalone="no"?>
<!--Created with Inkscape (http://www.inkscape.org/)-->
<svg width="150" height="250" viewBox="0 0 150 250" version="1.1" id="e7919038__svg1" xml:space="preserve" xmlns="http://www.w3.org/2000/svg" xmlns:svg="http://www.w3.org/2000/svg">
    <g>
        <g transform="matrix(1.3389562,0,0,1.3389562,17.5,0.19191851)">
            <path d="m 42.7685,185.538 c 11.4702,0 20.7686,-9.395 20.7686,-20.984 0,-11.59 -9.2984,-20.985 -20.7686,-20.985 -11.4701,0 -20.7685,9.395 -20.7685,20.985 0,11.589 9.2984,20.984 20.7685,20.984 z" fill="currentColor" id="dcd332db__path4-7"/>
            <path d="m 42.988,129.199 c -0.9113,0 -1.7507,-0.472 -2.2423,-1.247 -0.5756,-0.921 -1.3071,-2.084 -2.1824,-3.466 C 28.0111,107.827 0,63.5687 0,44.0504 0,20.0977 19.2817,0.603516 43,0.603516 c 23.7064,0 43,19.481984 43,43.446884 0,19.5305 -28.0231,63.7886 -38.5753,80.4486 -0.8633,1.369 -1.6068,2.532 -2.1704,3.44 -0.5156,0.788 -1.355,1.26 -2.2663,1.26 z" fill="currentColor" id="a629c1f7__path5-3"/>
            <path class="mark-circle" d="m 74.5,42.8269 c 0,16.995 -13.8699,30.7888 -31,30.7888 -17.1301,0 -31,-13.7938 -31,-30.7888 0,-16.995 13.8699,-30.7888 31,-30.7888 17.1301,0 31,13.7938 31,30.7888 z" fill="#ffffff" stroke="#ffffff" stroke-width="3" id="9160eeaf__path6-0"/>
            <path d="m 43.0522,52.7189 c 0,0.7854 -0.6409,1.4221 -1.4314,1.4221 -0.7904,0 -1.4313,-0.6367 -1.4313,-1.4221 0,-0.7853 0.6409,-1.422 1.4313,-1.422 0.7905,0 1.4314,0.6367 1.4314,1.422 z" fill="currentColor" id="d6c2f7f0__path7-2"/>
            <path fill-rule="evenodd" clip-rule="evenodd" d="m 48.9773,34.6498 c 0.7406,-0.4175 1.5667,-0.7217 2.4568,-0.8915 V 33.065 c 0,-0.276 0,-0.5307 -0.0071,-0.7571 -0.0071,-0.4386 -0.0356,-0.7994 -0.1068,-1.139 -0.4059,-1.8678 -1.8729,-3.3253 -3.7529,-3.7286 -0.5199,-0.1132 -1.111,-0.1132 -1.9085,-0.1132 h -8.0827 c -0.7976,0 -1.3886,0 -1.9085,0.1132 -1.88,0.4033 -3.347,1.8608 -3.7529,3.7286 -0.1139,0.5164 -0.1139,1.1037 -0.1139,1.8961 v 18.0837 c 0,0.9975 0,1.8253 0.0569,2.4904 0.057,0.7004 0.1852,1.3371 0.4985,1.9385 0.4629,0.8915 1.1964,1.6131 2.0937,2.0801 0.5982,0.3113 1.2462,0.4315 1.9441,0.4952 0.6765,0.0495 1.5026,0.0495 2.5067,0.0495 h 5.4335 c 1.0041,0 1.8302,0 2.5067,-0.0495 0.6979,-0.0637 1.3388,-0.1839 1.9441,-0.4952 0.8973,-0.467 1.6308,-1.1886 2.0937,-2.0801 0.3133,-0.6014 0.4415,-1.2381 0.4984,-1.9385 0.057,-0.6651 0.057,-1.4929 0.057,-2.4904 v -4.8535 c -0.1567,-0.0283 -0.3133,-0.0637 -0.4629,-0.099 -0.0997,-0.0213 -0.2065,0.0212 -0.2706,0.1061 -0.1424,0.2122 -0.3062,0.4316 -0.4842,0.6297 -0.1709,0.1981 -0.3632,0.3749 -0.5626,0.5377 -0.2136,0.1698 -0.4415,0.3113 -0.6765,0.4032 v 3.2262 c 0,1.0613 0,1.7829 -0.0499,2.3419 -0.0427,0.5447 -0.1282,0.8207 -0.2279,1.0117 -0.2278,0.4457 -0.5981,0.8065 -1.0468,1.04 -0.1923,0.0991 -0.47,0.184 -1.0183,0.2264 -0.5626,0.0495 -1.289,0.0495 -2.3572,0.0495 h -5.3195 c -1.0682,0 -1.7946,0 -2.3572,-0.0495 -0.5483,-0.0424 -0.8261,-0.1273 -1.0183,-0.2264 -0.4487,-0.2335 -0.819,-0.5943 -1.0469,-1.04 -0.1068,-0.191 -0.1851,-0.467 -0.2278,-1.0117 -0.0499,-0.559 -0.0499,-1.2806 -0.0499,-2.3419 V 33.1994 c 0,-0.9905 0,-1.2877 0.057,-1.5141 0.1994,-0.9339 0.9329,-1.6626 1.8729,-1.8607 0.2279,-0.0495 0.527,-0.0566 1.5239,-0.0566 h 0.292 c 0.1282,0.0212 0.2421,0.0708 0.3347,0.1557 0.0142,0.007 0.0356,0.0283 0.1994,0.2122 l 0.705,0.7783 0.0142,0.0141 0.0428,0.0425 c 0,0 0.1068,0.099 0.2065,0.1627 0.1139,0.0778 0.2492,0.1344 0.3845,0.1698 0.114,0.0354 0.2066,0.0424 0.2564,0.0424 h 2.934 c 0.0569,0 0.1495,-0.007 0.2635,-0.0424 0.1353,-0.0354 0.2706,-0.092 0.3845,-0.1698 0.0997,-0.0637 0.1709,-0.1274 0.2065,-0.1627 0.0143,-0.0213 0.0285,-0.0354 0.0356,-0.0425 l 0.0214,-0.0141 0.705,-0.7783 c 0.1638,-0.1839 0.178,-0.2052 0.1923,-0.2122 0.0997,-0.0849 0.2136,-0.1345 0.3418,-0.1557 h 0.292 c 0.9969,0 1.296,0.0071 1.5239,0.0566 0.94,0.1981 1.6735,0.9268 1.8729,1.8607 0.0499,0.2123 0.057,0.4882 0.057,1.3514 z" fill="currentColor" id="e73a1560__path8-4"/>
            <path fill-rule="evenodd" clip-rule="evenodd" d="m 52.908,32.1875 c -0.5057,0 -0.997,0.0425 -1.4813,0.1203 -0.8616,0.1273 -1.6877,0.382 -2.4497,0.7287 -2.7773,1.2735 -4.7641,3.8559 -4.7641,6.9901 0,2.363 1.1536,4.4431 2.9055,5.851 0.1424,0.184 0.2207,0.4033 0.2207,0.6368 0,0.2193 -0.0712,0.4245 -0.1922,0.5943 -0.6552,0.9056 -0.0997,2.4408 1.3031,2.3559 0.1852,-0.0141 0.3561,-0.0353 0.527,-0.0778 0.6409,-0.1486 1.1822,-0.474 1.6023,-0.8136 0.3133,-0.2476 0.5911,-0.5306 0.8403,-0.8207 h 0.0143 c 0.4771,0.0778 0.9756,0.1203 1.4741,0.1203 4.6359,0 8.695,-3.3607 8.695,-7.8462 0,-4.4856 -4.0591,-7.8391 -8.695,-7.8391 z m 0,14.242 c -0.5057,0 -0.997,-0.0425 -1.4741,-0.1345 -0.1567,-0.0283 -0.3134,-0.0636 -0.4629,-0.099 -0.0997,-0.0212 -0.2065,0.0212 -0.2706,0.1061 -0.1425,0.2123 -0.3062,0.4316 -0.4843,0.6297 -0.1709,0.1981 -0.3632,0.375 -0.5626,0.5377 -0.2136,0.1698 -0.4415,0.3113 -0.6765,0.4033 -0.178,0.0778 -0.3632,0.1273 -0.5554,0.1485 -0.0214,0 -0.0428,0.0071 -0.0641,0.0071 -0.0356,0 -0.0641,-0.0424 -0.0356,-0.0778 0,-0.0142 0.0213,-0.0283 0.0284,-0.0425 0.2564,-0.3679 0.4131,-0.7994 0.4344,-1.2664 0,-0.0424 0.0072,-0.0849 0.0072,-0.1273 0,-0.0637 -0.0072,-0.1345 -0.0143,-0.1981 -0.0427,-0.566 -0.2848,-1.0825 -0.6551,-1.4787 -1.5097,-1.1745 -2.464,-2.8937 -2.464,-4.811 0,-2.2499 1.3246,-4.2309 3.3185,-5.377 0.7406,-0.4174 1.5667,-0.7217 2.4569,-0.8915 0.4771,-0.0849 0.9684,-0.1273 1.4741,-0.1273 4.0021,0 7.2494,2.8654 7.2494,6.3958 0,3.5304 -3.2473,6.4029 -7.2494,6.4029 z" fill="currentColor" stroke="currentColor" stroke-miterlimit="10" id="162f92d2__path9-1"/>
            <path class="mark-number" d="m 45.724452,154.597 h 0.3238 v 19.785 h -3.8971 v -14.479 l -4.4487,1.733 v -3.671 z" fill="#ffffff" id="a4159a99__path10-5"/>
        </g>
    </g>
</svg>
