<?xml version="1.0" encoding="UTF-8" standalone="no"?>
<!--Created with Inkscape (http://www.inkscape.org/)-->
<svg width="150" height="250" viewBox="0 0 150 250" version="1.1" id="ca45b393__svg1" xml:space="preserve" xmlns="http://www.w3.org/2000/svg" xmlns:svg="http://www.w3.org/2000/svg">
    <g>
        <g transform="matrix(1.3432141,0,0,1.3432141,-1069.1602,0.18934883)">
            <path d="m 851.988,129.199 c -0.911,0 -1.751,-0.472 -2.242,-1.247 -0.576,-0.921 -1.307,-2.084 -2.183,-3.466 C 837.011,107.827 809,63.5687 809,44.0504 809,20.0977 828.282,0.603516 852,0.603516 c 23.706,0 43,19.481984 43,43.446884 0,19.5305 -28.023,63.7886 -38.575,80.4486 -0.864,1.369 -1.607,2.532 -2.171,3.44 -0.515,0.788 -1.355,1.26 -2.266,1.26 z" fill="currentColor" id="5b560078__path22-7"/>
            <path class="mark-circle" d="m 883.5,42.8269 c 0,16.995 -13.87,30.7888 -31,30.7888 -17.13,0 -31,-13.7938 -31,-30.7888 0,-16.995 13.87,-30.7888 31,-30.7888 17.13,0 31,13.7938 31,30.7888 z" fill="#ffffff" stroke="#ffffff" stroke-width="3" id="98cc2360__path23-7"/>
            <path d="m 852.769,185.636 c 11.47,0 20.768,-9.395 20.768,-20.985 0,-11.589 -9.298,-20.984 -20.768,-20.984 -11.471,0 -20.769,9.395 -20.769,20.984 0,11.59 9.298,20.985 20.769,20.985 z" fill="currentColor" id="561dbc03__path24-9"/>
            <path class="mark-number" d="m 859.321,168.571 c 0,3.473 -2.915,5.952 -7.051,5.952 -2.714,0 -4.895,-1.174 -6.27,-3.389 l 2.655,-2.096 c 0.936,1.234 2.038,1.94 3.437,1.94 1.979,0 3.318,-1.149 3.318,-2.706 0,-1.617 -1.339,-2.742 -3.318,-2.742 h -1.813 v -2.97 h 1.078 c 2.074,0 3.271,-1.114 3.176,-2.479 -0.059,-1.173 -1.043,-1.916 -2.453,-1.916 -1.221,0 -2.513,0.623 -3.236,1.557 l -2.097,-2.419 c 1.339,-1.593 3.294,-2.706 5.771,-2.706 3.354,0 5.974,2.059 5.914,5.328 0,1.617 -0.96,3.03 -2.512,3.832 2.062,0.779 3.401,2.551 3.401,4.814 z" fill="#ffffff" id="fbbf3cea__path25-3"/>
            <path fill-rule="evenodd" clip-rule="evenodd" d="m 836.633,53.9351 h -2.176 c -2.104,0 -1.643,2.1025 -0.414,2.1025 h 37.862 c 1.366,0.1292 1.691,-2.1025 -0.413,-2.1025 h -2.176 V 37.0563 c 0,-0.8515 0,-1.5856 -0.047,-2.1906 -0.053,-0.6401 -0.171,-1.2744 -0.485,-1.8852 -0.449,-0.8692 -1.158,-1.5798 -2.021,-2.032 -0.609,-0.3171 -1.236,-0.4346 -1.874,-0.4874 -0.603,-0.0529 -1.336,-0.0529 -2.182,-0.0529 h -4.067 c -0.094,0 -0.183,0 -0.271,0 h -10.783 c -0.088,0 -0.183,0 -0.272,0 h -4.067 c -0.845,0 -1.578,0 -2.181,0.0529 -0.638,0.0528 -1.265,0.1703 -1.874,0.4874 -0.869,0.4522 -1.572,1.1628 -2.021,2.032 -0.314,0.6108 -0.432,1.2451 -0.485,1.8852 -0.048,0.605 -0.048,1.3391 -0.048,2.1906 V 53.9351 Z M 848.349,32.822 c -0.142,-0.0353 -0.313,-0.047 -1.177,-0.047 h -4.87 c -0.929,0 -1.526,0 -1.981,0.0411 -0.437,0.0352 -0.597,0.0998 -0.68,0.1409 -0.289,0.1527 -0.526,0.3877 -0.673,0.6754 -0.042,0.0823 -0.101,0.2408 -0.142,0.6813 -0.036,0.4581 -0.042,1.0571 -0.042,1.9909 v 17.6305 h 28.321 V 36.3046 c 0,-0.9338 0,-1.5328 -0.041,-1.9909 -0.035,-0.4405 -0.1,-0.599 -0.142,-0.6813 -0.148,-0.2877 -0.384,-0.5285 -0.674,-0.6754 -0.077,-0.0411 -0.242,-0.1057 -0.679,-0.1409 -0.456,-0.0352 -1.053,-0.0411 -1.981,-0.0411 h -4.829 c -0.863,0 -1.035,0.0117 -1.177,0.047 -0.159,0.0411 -0.307,0.0998 -0.443,0.1879 -0.124,0.0764 -0.254,0.1879 -0.863,0.8046 l -0.278,0.2819 c 0,0 -0.047,0.047 -0.083,0.0822 -0.053,0.047 -0.142,0.1292 -0.266,0.2056 -0.153,0.0939 -0.319,0.1644 -0.49,0.2055 -0.142,0.0353 -0.26,0.047 -0.331,0.047 -0.054,0 -0.107,0 -0.119,0 h -3.481 c 0,0 -0.065,0 -0.119,0 -0.071,0 -0.189,-0.0117 -0.331,-0.047 -0.171,-0.0411 -0.337,-0.1116 -0.49,-0.2055 -0.124,-0.0764 -0.213,-0.1527 -0.266,-0.2056 -0.042,-0.0352 -0.077,-0.0763 -0.083,-0.0822 l -0.278,-0.2819 c -0.609,-0.6108 -0.739,-0.7282 -0.863,-0.8046 -0.136,-0.0822 -0.29,-0.1468 -0.443,-0.1879 z" fill="currentColor" id="06ee7f19__path26-0"/>
            <path d="m 848.986,49.1442 c 0.586,-0.8575 1.058,-2.1143 1.035,-3.33 h 1.832 c 0.012,1.4213 -0.733,2.9189 -1.856,3.7881 z m 0.81,-6.3721 c 0,-0.646 0.509,-1.1041 1.123,-1.1041 0.615,0 1.123,0.4581 1.123,1.1041 0,0.646 -0.508,1.0747 -1.123,1.0747 -0.614,0 -1.123,-0.4581 -1.123,-1.0747 z" fill="currentColor" id="6070d701__path27-2"/>
            <path d="m 852.988,48.6742 c 0.958,0 2.442,-1.0395 2.442,-4.3048 0,-3.2654 -1.484,-4.3166 -2.442,-4.3166 v -1.2862 c 2.43,0 4.026,2.3785 4.026,5.6086 0,3.2301 -1.596,5.6087 -4.026,5.6087 V 48.686 Z" fill="currentColor" id="175c13cd__path28-1"/>
        </g>
    </g>
</svg>
